<?xml version="1.0" standalone="no"?>
<!DOCTYPE svg PUBLIC "-//W3C//DTD SVG 20010904//EN"
 "http://www.w3.org/TR/2001/REC-SVG-20010904/DTD/svg10.dtd">
<svg version="1.0" xmlns="http://www.w3.org/2000/svg"
 width="24.000000pt" height="24.000000pt" viewBox="0 0 512.000000 512.000000"
 preserveAspectRatio="xMidYMid meet">

<g transform="translate(0.000000,512.000000) scale(0.100000,-0.100000)"
fill="#000000" stroke="none">
<path d="M2090 5056 c-151 -34 -275 -157 -309 -307 -6 -24 -11 -96 -11 -161
l0 -116 -262 -4 c-251 -4 -267 -6 -353 -32 -354 -107 -605 -431 -608 -785 -1
-89 14 -126 70 -168 34 -26 44 -28 145 -31 l108 -4 0 -1466 c0 -920 4 -1493
10 -1536 28 -190 171 -342 359 -382 99 -21 2534 -20 2634 1 152 32 275 137
334 285 17 42 18 138 23 1570 l5 1525 105 5 c123 6 161 23 200 92 61 108 0
376 -128 565 -92 136 -270 269 -424 318 -119 38 -186 45 -425 45 l-221 0 -4
148 c-4 125 -8 156 -28 207 -32 83 -132 182 -215 216 -60 24 -61 24 -505 26
-327 1 -460 -1 -500 -11z m943 -220 c43 -17 93 -76 106 -123 6 -21 11 -84 11
-140 l0 -103 -586 0 -586 0 4 123 c4 129 14 161 60 204 57 54 50 53 521 53
345 0 444 -3 470 -14z m857 -599 c85 -26 189 -83 251 -137 108 -95 189 -246
205 -383 l7 -57 -1798 0 -1798 0 6 58 c9 84 43 173 96 255 103 157 254 249
461 281 14 2 585 3 1270 2 1135 -2 1250 -3 1300 -19z m140 -2282 c0 -1320 -2
-1500 -15 -1532 -26 -62 -65 -104 -120 -129 l-52 -24 -1290 2 -1290 3 -49 30
c-30 19 -60 49 -79 79 l-30 49 -3 1509 -2 1508 1465 0 1465 0 0 -1495z"/>
<path d="M1677 2974 c-4 -4 -7 -506 -7 -1116 l0 -1108 110 0 110 0 -2 1113 -3
1112 -101 3 c-55 1 -103 0 -107 -4z"/>
<path d="M2457 2974 c-4 -4 -7 -506 -7 -1116 l0 -1108 110 0 110 0 -2 1113 -3
1112 -101 3 c-55 1 -103 0 -107 -4z"/>
<path d="M3237 2974 c-4 -4 -7 -506 -7 -1116 l0 -1108 110 0 110 0 -2 1113 -3
1112 -101 3 c-55 1 -103 0 -107 -4z"/>
</g>
</svg>
